<?xml version="1.0" encoding="UTF-8"?>
<svg xmlns="http://www.w3.org/2000/svg" xmlns:xlink="http://www.w3.org/1999/xlink" width="50px" height="50px" viewBox="0 0 60 60" version="1.1">
    <!-- Generator: Sketch 52.6 (67491) - http://www.bohemiancoding.com/sketch -->
    <title>014 - Calendar</title>
    <desc>Created with Sketch.</desc>
    <g id="Page-1" stroke="none" stroke-width="1" fill="none" fill-rule="evenodd">
        <g id="014---Calendar">
            <g id="Icons_copy" transform="translate(1.000000, 1.000000)">
                <path d="M46,14 L46,23.87 L44.51,22.31 C44.2278688,22.0188127 43.8008284,21.9208676 43.42,22.06 L40,23.33 L36.58,22.06 C36.2024166,21.9195748 35.7774715,22.0179417 35.5,22.31 L32.94,24.98 L29.31,25.36 C28.9164792,25.4048618 28.5848009,25.6741065 28.46,26.05 L27.28,29.61 L24.16,31.57 C23.8304364,31.7813444 23.6485018,32.1606974 23.69,32.55 L24.14,36.29 L22.15,39.47 C21.9499226,39.7950095 21.9499226,40.2049905 22.15,40.53 L24.14,43.71 L23.86,46 L4,46 C1.790861,46 2.22044605e-16,44.209139 0,42 L0,14 L46,14 Z" id="Path" fill="#FFDC00"/>
                <path d="M33.58,22.06 C33.2024166,21.9195748 32.7774715,22.0179417 32.5,22.31 L29.94,24.98 L26.31,25.36 C25.9164792,25.4048618 25.5848009,25.6741065 25.46,26.05 L24.28,29.61 L21.16,31.57 C20.8304364,31.7813444 20.6485018,32.1606974 20.69,32.55 L21.14,36.29 L19.15,39.47 C18.9499226,39.7950095 18.9499226,40.2049905 19.15,40.53 L21.14,43.71 L20.86,46 L23.86,46 L24.14,43.71 L22.15,40.53 C21.9499226,40.2049905 21.9499226,39.7950095 22.15,39.47 L24.14,36.29 L23.69,32.55 C23.6485018,32.1606974 23.8304364,31.7813444 24.16,31.57 L27.28,29.61 L28.46,26.05 C28.5848009,25.6741065 28.9164792,25.4048618 29.31,25.36 L32.94,24.98 L35.173,22.651 L33.58,22.06 Z" id="Path" fill="#FF8401"/>
                <path d="M43,14 L43,22.216 L43.42,22.06 C43.8008284,21.9208676 44.2278688,22.0188127 44.51,22.31 L46,23.87 L46,14 L43,14 Z" id="Path" fill="#FF8401"/>
                <path d="M41.51,22.31 C41.2278688,22.0188127 40.8008284,21.9208676 40.42,22.06 L38.5,22.773 L40,23.33 L41.834,22.649 L41.51,22.31 Z" id="Path" fill="#FF8401"/>
                <path d="M46,9 L46,14 L0,14 L0,9 C-2.22044605e-16,6.790861 1.790861,5 4,5 L7,5 L7,8 C7,9.1045695 7.8954305,10 9,10 C10.1045695,10 11,9.1045695 11,8 L11,5 L35,5 L35,8 C35,9.1045695 35.8954305,10 37,10 C38.1045695,10 39,9.1045695 39,8 L39,5 L42,5 C44.209139,5 46,6.790861 46,9 Z" id="Path" fill="#FC4012"/>
                <path d="M41.1,5 L38.167,5 C40.3481281,5.02853834 42.0936804,6.81884839 42.067,9 L42.067,14 L45,14 L45,9 C45.0266804,6.81884839 43.2811281,5.02853834 41.1,5 Z" id="Path" fill="#BD300E"/>
                <path d="M11,2 L11,8 C11,9.1045695 10.1045695,10 9,10 C7.8954305,10 7,9.1045695 7,8 L7,2 C7.0032948,0.896798134 7.89679813,0.00329480111 9,-4.4408921e-16 C9.53059053,-0.00282306649 10.0395388,0.210141102 10.41,0.59 C10.7898589,0.9604612 11.0028231,1.46940947 11,2 Z" id="Path" fill="#BFBFBF"/>
                <path d="M39,2 L39,8 C39,9.1045695 38.1045695,10 37,10 C35.8954305,10 35,9.1045695 35,8 L35,2 C35.0032948,0.896798134 35.8967981,0.00329480111 37,-2.22044605e-16 C37.5305905,-0.00282306649 38.0395388,0.210141102 38.41,0.59 C38.7898589,0.9604612 39.0028231,1.46940947 39,2 Z" id="Path" fill="#BFBFBF"/>
                <rect id="Rectangle" fill="#48BDFF" x="4" y="18" width="10" height="10" rx="1"/>
                <rect id="Rectangle" fill="#48BDFF" x="4" y="32" width="10" height="10" rx="1"/>
                <rect id="Rectangle" fill="#48BDFF" x="18" y="18" width="10" height="10" rx="1"/>
                <rect id="Rectangle" fill="#48BDFF" x="32" y="18" width="10" height="10" rx="1"/>
                <rect id="Rectangle" fill="#48BDFF" x="18" y="32" width="10" height="10" rx="1"/>
                <path d="M57.85,40.53 L55.86,43.71 L56.31,47.45 C56.3514982,47.8393026 56.1695636,48.2186556 55.84,48.43 L52.72,50.39 L51.54,53.95 C51.4151991,54.3258935 51.0835208,54.5951382 50.69,54.64 L47.06,55.02 L44.5,57.69 C44.2225285,57.9820583 43.7975834,58.0804252 43.42,57.94 L40,56.67 L36.58,57.94 C36.1991716,58.0791324 35.7721312,57.9811873 35.49,57.69 L32.94,55.02 L29.31,54.63 C28.9179139,54.5894352 28.5856431,54.3236186 28.46,53.95 L27.28,50.39 L24.16,48.43 C23.8304364,48.2186556 23.6485018,47.8393026 23.69,47.45 L23.86,46 L24.14,43.71 L22.15,40.53 C21.9499226,40.2049905 21.9499226,39.7950095 22.15,39.47 L24.14,36.29 L23.69,32.55 C23.6485018,32.1606974 23.8304364,31.7813444 24.16,31.57 L27.28,29.61 L28.46,26.05 C28.5848009,25.6741065 28.9164792,25.4048618 29.31,25.36 L32.94,24.98 L35.5,22.31 C35.7774715,22.0179417 36.2024166,21.9195748 36.58,22.06 L40,23.33 L43.42,22.06 C43.8008284,21.9208676 44.2278688,22.0188127 44.51,22.31 L46,23.87 L47.06,24.98 L50.69,25.37 C51.0820861,25.4105648 51.4143569,25.6763814 51.54,26.05 L52.72,29.61 L55.84,31.57 C56.1695636,31.7813444 56.3514982,32.1606974 56.31,32.55 L55.86,36.29 L57.85,39.47 C58.0500774,39.7950095 58.0500774,40.2049905 57.85,40.53 Z" id="Path" fill="#FFDC00"/>
                <path d="M57.85,39.47 L55.86,36.29 L56.31,32.55 C56.3514982,32.1606974 56.1695636,31.7813444 55.84,31.57 L52.72,29.61 L51.54,26.05 C51.4143569,25.6763814 51.0820861,25.4105648 50.69,25.37 L47.06,24.98 L46,23.87 L44.51,22.31 C44.2278688,22.0188127 43.8008284,21.9208676 43.42,22.06 L41.834,22.649 L43,23.87 L44.06,24.98 L47.69,25.37 C48.0820861,25.4105648 48.4143569,25.6763814 48.54,26.05 L49.72,29.61 L52.84,31.57 C53.1695636,31.7813444 53.3514982,32.1606974 53.31,32.55 L52.86,36.29 L54.85,39.47 C55.0500774,39.7950095 55.0500774,40.2049905 54.85,40.53 L52.86,43.71 L53.31,47.45 C53.3514982,47.8393026 53.1695636,48.2186556 52.84,48.43 L49.72,50.39 L48.54,53.95 C48.4151991,54.3258935 48.0835208,54.5951382 47.69,54.64 L44.06,55.02 L41.827,57.349 L43.42,57.94 C43.7975834,58.0804252 44.2225285,57.9820583 44.5,57.69 L47.06,55.02 L50.69,54.64 C51.0835208,54.5951382 51.4151991,54.3258935 51.54,53.95 L52.72,50.39 L55.84,48.43 C56.1695636,48.2186556 56.3514982,47.8393026 56.31,47.45 L55.86,43.71 L57.85,40.53 C58.0500774,40.2049905 58.0500774,39.7950095 57.85,39.47 Z" id="Path" fill="#FF8401"/>
                <path d="M49,32.986 C49.0032832,33.5107865 48.7961895,34.0150148 48.425,34.386 L34.383,48.42 C33.8168399,48.9886641 32.9631088,49.1587006 32.2222747,48.8503487 C31.4814405,48.5419967 31.0004792,47.8164311 31.005,47.014 C31.0017168,46.4892135 31.2088105,45.9849852 31.58,45.614 L45.617,31.58 C46.1826653,31.0077084 47.038751,30.8353595 47.7818031,31.1441775 C48.5248552,31.4529955 49.0065992,32.1813563 49,32.986 Z" id="Path" fill="#FFFFFF"/>
                <circle id="Oval" fill="#FFFFFF" cx="34" cy="34" r="3"/>
                <path d="M34,31 C33.4718941,31.0027453 32.9540847,31.1463511 32.5,31.416 C33.4273539,31.9458262 33.9996803,32.9319639 33.9996803,34 C33.9996803,35.0680361 33.4273539,36.0541738 32.5,36.584 C32.9540847,36.8536489 33.4718941,36.9972547 34,37 C35.6568542,37 37,35.6568542 37,34 C37,32.3431458 35.6568542,31 34,31 Z" id="Path" fill="#CCCCCC"/>
                <circle id="Oval" fill="#FFFFFF" cx="46" cy="46" r="3"/>
                <path d="M46,43 C45.4718941,43.0027453 44.9540847,43.1463511 44.5,43.416 C45.4273539,43.9458262 45.9996803,44.9319639 45.9996803,46 C45.9996803,47.0680361 45.4273539,48.0541738 44.5,48.584 C44.9540847,48.8536489 45.4718941,48.9972547 46,49 C47.6568542,48.9999999 48.9999999,47.6568542 48.9999999,46 C48.9999999,44.3431458 47.6568542,43.0000001 46,43 Z" id="Path" fill="#CCCCCC"/>
            </g>
            <g id="Icons_copy_2" transform="translate(1.000000, 6.000000)" fill="#FFFFFF">
                <path d="M4,41 L7,41 C4.790861,41 3,39.209139 3,37 L3,4 C3,1.790861 4.790861,0 7,0 L4,0 C1.790861,0 2.22044605e-16,1.790861 0,4 L0,37 C2.22044605e-16,39.209139 1.790861,41 4,41 Z" id="Path"/>
            </g>
            <g id="Icons">
                <rect id="Rectangle" fill="#FFFFFF" x="0" y="35" width="2" height="8"/>
                <path d="M1.02,40 C0.46771525,40.0027614 0.0177614237,39.5572847 0.015,39.005 C0.0122385763,38.4527153 0.45771525,38.0027614 1.01,38 L1.02,38 C1.57228475,38 2.02,38.4477153 2.02,39 C2.02,39.5522847 1.57228475,40 1.02,40 Z" id="Path" fill="#000000"/>
                <path d="M5,48 L20.84,48 C21.3922847,48 21.84,47.5522847 21.84,47 C21.84,46.4477153 21.3922847,46 20.84,46 L5,46 C3.34314575,46 2,44.6568542 2,43 C2,42.4477153 1.55228475,42 1,42 C0.44771525,42 -3.76453835e-16,42.4477153 -4.4408921e-16,43 C0.00330611633,45.7600532 2.23994685,47.9966939 5,48 Z" id="Path" fill="#000000"/>
                <path d="M10,0 C8.34314575,-1.01453063e-16 7,1.34314575 7,3 L7,5 L5,5 C2.23994685,5.00330612 0.00330611633,7.23994685 0,10 L0,35 C6.76353751e-17,35.5522847 0.44771525,36 1,36 C1.55228475,36 2,35.5522847 2,35 L2,16 L46,16 L46,19.53 C46,20.0822847 46.4477153,20.53 47,20.53 C47.5522847,20.53 48,20.0822847 48,19.53 L48,10 C47.9966939,7.23994685 45.7600532,5.00330612 43,5 L41,5 L41,3 C41,1.34314575 39.6568542,1.01453063e-16 38,0 C36.3431458,-1.01453063e-16 35,1.34314575 35,3 L35,5 L13,5 L13,3 C13,1.34314575 11.6568542,1.01453063e-16 10,0 Z M9,3 C9,2.44771525 9.44771525,2 10,2 C10.5522847,2 11,2.44771525 11,3 L11,9 C11,9.55228475 10.5522847,10 10,10 C9.44771525,10 9,9.55228475 9,9 L9,3 Z M37,3 C37,2.44771525 37.4477153,2 38,2 C38.5522847,2 39,2.44771525 39,3 L39,9 C39,9.55228475 38.5522847,10 38,10 C37.4477153,10 37,9.55228475 37,9 L37,3 Z M35,7 L35,9 C35,10.6568542 36.3431458,12 38,12 C39.6568542,12 41,10.6568542 41,9 L41,7 L43,7 C44.6568542,7 46,8.34314575 46,10 L46,14 L2,14 L2,10 C2,8.34314575 3.34314575,7 5,7 L7,7 L7,9 C7,10.6568542 8.34314575,12 10,12 C11.6568542,12 13,10.6568542 13,9 L13,7 L35,7 Z" id="Shape" fill="#000000" fill-rule="nonzero"/>
                <path d="M51,33.986 C51.0046434,33.194172 50.6924703,32.4333625 50.133,31.873 C48.9521735,30.7476664 47.0958265,30.7476664 45.915,31.873 L31.873,45.91 C30.7270408,47.0776214 30.7358087,48.9505093 31.8926497,50.1073503 C33.0494907,51.2641913 34.9223786,51.2729592 36.09,50.127 L50.127,36.09 C50.6875825,35.5335824 51.0019874,34.7758413 51,33.986 Z M48.718,34.676 L34.675,48.713 C34.286421,49.0832858 33.675579,49.0832858 33.287,48.713 C32.9129903,48.3255309 32.9129903,47.7114691 33.287,47.324 L47.325,33.287 C47.7106313,32.9162132 48.322104,32.9223228 48.7002496,33.3007408 C49.0783952,33.6791589 49.0840644,34.2906358 48.713,34.676 L48.718,34.676 Z" id="Shape" fill="#000000" fill-rule="nonzero"/>
                <path d="M35,39 C37.209139,39 39,37.209139 39,35 C39,32.790861 37.209139,31 35,31 C32.790861,31 31,32.790861 31,35 C31,37.209139 32.790861,39 35,39 Z M35,33 C36.1045695,33 37,33.8954305 37,35 C37,36.1045695 36.1045695,37 35,37 C33.8954305,37 33,36.1045695 33,35 C33,33.8954305 33.8954305,33 35,33 Z" id="Shape" fill="#000000" fill-rule="nonzero"/>
                <path d="M47,43 C44.790861,43 43,44.790861 43,47 C43,49.209139 44.790861,51 47,51 C49.209139,51 51,49.209139 51,47 C51,44.790861 49.209139,43 47,43 Z M47,49 C45.8954305,49 45,48.1045695 45,47 C45,45.8954305 45.8954305,45 47,45 C48.1045695,45 49,45.8954305 49,47 C49,48.1045695 48.1045695,49 47,49 Z" id="Shape" fill="#000000" fill-rule="nonzero"/>
                <path d="M16,20 C16,18.8954305 15.1045695,18 14,18 L6,18 C4.8954305,18 4,18.8954305 4,20 L4,28 C4,29.1045695 4.8954305,30 6,30 L14,30 C15.1045695,30 16,29.1045695 16,28 L16,20 Z M6,28 L6,20 L14,20 L14,28 L6,28 Z" id="Shape" fill="#000000" fill-rule="nonzero"/>
                <path d="M14,32 L6,32 C4.8954305,32 4,32.8954305 4,34 L4,42 C4,43.1045695 4.8954305,44 6,44 L14,44 C15.1045695,44 16,43.1045695 16,42 L16,34 C16,32.8954305 15.1045695,32 14,32 Z M6,42 L6,34 L14,34 L14,42 L6,42 Z" id="Shape" fill="#000000" fill-rule="nonzero"/>
                <path d="M24.33,29 C24.33,28.4477153 23.8822847,28 23.33,28 L20,28 L20,20 L28,20 L28,22.57 C28,23.1222847 28.4477153,23.57 29,23.57 C29.5522847,23.57 30,23.1222847 30,22.57 L30,20 C30,18.8954305 29.1045695,18 28,18 L20,18 C18.8954305,18 18,18.8954305 18,20 L18,28 C18,29.1045695 18.8954305,30 20,30 L23.33,30 C23.8822847,30 24.33,29.5522847 24.33,29 Z" id="Path" fill="#000000"/>
                <path d="M20.7,34 C21.2522847,34 21.7,33.5522847 21.7,33 C21.7,32.4477153 21.2522847,32 20.7,32 L20,32 C18.8954305,32 18,32.8954305 18,34 L18,42 C18.0033103,42.5392516 18.2188646,43.0555042 18.6,43.437 C18.7828091,43.6210393 19.0315978,43.7243713 19.291,43.724 C19.6999207,43.724781 20.0687107,43.4781981 20.2242419,43.1000093 C20.3797732,42.7218205 20.2911593,42.2871289 20,42 L20,34 L20.7,34 Z" id="Path" fill="#000000"/>
                <path d="M34,21.17 L34,20 L42,20 C42.2143594,20.2858125 42.5649147,20.4355547 42.9196152,20.3928203 C43.2743158,20.3500859 43.5792741,20.1213672 43.7196152,19.7928203 C43.8599564,19.4642734 43.8143594,19.0858125 43.6,18.8 C43.2213644,18.2975001 42.6291813,18.0014085 42,18 L34,18 C32.8954305,18 32,18.8954305 32,20 L32,21.17 C32,21.7222847 32.4477153,22.17 33,22.17 C33.5522847,22.17 34,21.7222847 34,21.17 Z" id="Path" fill="#000000"/>
                <path d="M57.376,31.729 L54.556,29.952 L53.49,26.737 C53.2419169,25.9905994 52.5818267,25.457059 51.8,25.371 L48.533,25.022 L46.233,22.622 C45.6803396,22.0419268 44.8359634,21.8454688 44.084,22.122 L41,23.264 L37.923,22.125 C37.1707311,21.8483003 36.3259792,22.0447542 35.773,22.625 L33.473,25.025 L30.207,25.374 C29.4214047,25.4563563 28.7565775,25.9905645 28.507,26.74 L27.441,29.955 L24.62,31.732 C23.9651759,32.1463694 23.6056424,32.8992521 23.695,33.669 L24.095,37.061 L22.295,39.939 C21.8894889,40.5907383 21.8894889,41.4162617 22.295,42.068 L24.095,44.946 L23.695,48.338 C23.6056424,49.1077479 23.9651759,49.8606306 24.62,50.275 L27.44,52.052 L28.506,55.267 C28.7559636,56.0130467 29.4176802,56.5450762 30.2,56.629 L33.467,56.978 L35.767,59.378 C36.3207955,59.9563117 37.1650152,60.150769 37.916,59.873 L41,58.736 L44.077,59.875 C44.8282904,60.1529378 45.6728859,59.9584844 46.227,59.38 L48.527,56.98 L51.793,56.631 C52.5785953,56.5486437 53.2434225,56.0144355 53.493,55.265 L54.559,52.05 L57.38,50.273 C58.0348241,49.8586306 58.3943576,49.1057479 58.305,48.336 L57.905,44.944 L59.705,42.066 C60.1105111,41.4142617 60.1105111,40.5887383 59.705,39.937 L57.905,37.059 L58.305,33.667 C58.3939402,32.8960752 58.032703,32.1424932 57.376,31.729 Z M58,41 L56.015,44.178 C55.8942695,44.3711792 55.8431144,44.5997894 55.87,44.826 L56.312,48.576 L53.187,50.543 C52.9908372,50.6667279 52.8437796,50.854792 52.771,51.075 L51.584,54.638 L47.954,55.025 C47.7193915,55.0491132 47.5008552,55.1553708 47.337,55.325 L44.771,58 L41.347,56.732 C41.123084,56.6491535 40.876916,56.6491535 40.653,56.732 L37.217,58 L34.663,55.334 C34.4991448,55.1643708 34.2806085,55.0581132 34.046,55.034 L30.408,54.64 L29.23,51.078 C29.1569652,50.8576396 29.0095377,50.6695546 28.813,50.546 L25.685,48.57 L26.131,44.83 C26.1578856,44.6037894 26.1067305,44.3751792 25.986,44.182 L24,41 L25.985,37.822 C26.1057305,37.6288208 26.1568856,37.4002106 26.13,37.174 L25.688,33.424 L28.813,31.457 C29.0091628,31.3332721 29.1562204,31.145208 29.229,30.925 L30.416,27.362 L34.046,26.975 C34.2806085,26.9508868 34.4991448,26.8446292 34.663,26.675 L37.229,24 L40.653,25.268 C40.876916,25.3508465 41.123084,25.3508465 41.347,25.268 L44.783,24 L47.337,26.666 C47.5008552,26.8356292 47.7193915,26.9418868 47.954,26.966 L51.592,27.36 L52.77,30.916 C52.8430348,31.1363604 52.9904623,31.3244454 53.187,31.448 L56.315,33.424 L55.869,37.164 C55.8421144,37.3902106 55.8932695,37.6188208 56.014,37.812 L58,41 Z" id="Shape" fill="#000000" fill-rule="nonzero"/>
            </g>
        </g>
    </g>
</svg>
